<?xml version="1.0" encoding="utf-8"?>
<!-- Generator: Adobe Illustrator 23.0.1, SVG Export Plug-In . SVG Version: 6.00 Build 0)  -->
<svg version="1.1" id="Layer_1" xmlns="http://www.w3.org/2000/svg" xmlns:xlink="http://www.w3.org/1999/xlink" x="0px" y="0px"
	 viewBox="0 0 64 64" style="enable-background:new 0 0 64 64;" xml:space="preserve">
<style type="text/css">
	.st0{fill:#8CAEDC;stroke:#6666FF;stroke-width:3;stroke-linecap:round;stroke-linejoin:round;stroke-miterlimit:10;}
	.st1{fill:none;stroke:#6666FF;stroke-width:2;stroke-linecap:round;stroke-linejoin:round;stroke-miterlimit:10;}
</style>
<g>
	<path class="st0" d="M61.6,23.5c0-2.7-1.4-5-3.5-6.3c-0.6-3.4-3.5-5.9-7.1-6c-1.2-2.5-3.7-4.2-6.7-4.2c-1.2,0-2.3,0.3-3.3,0.8
		c-1.4-1.5-3.3-2.5-5.5-2.5c-1.3,0-2.5,0.3-3.5,0.9c-1-0.6-2.2-0.9-3.5-0.9c-2.3,0-4.3,1-5.7,2.6c-0.8-0.3-1.7-0.5-2.5-0.5
		c-2.7,0-5.1,1.5-6.4,3.7c-3.6,0.1-6.5,2.7-7.1,6.1C4.4,18.5,2.7,21,2.7,24c0,0.5,0.1,1,0.2,1.5c-0.3,0.8-0.5,1.7-0.5,2.6
		c0,4.1,3.3,7.4,7.4,7.4c1.5,0,3-0.5,4.2-1.3c0.1,0,0.2,0,0.3,0c1,0,2-0.2,2.9-0.6c0.8,3.2,3.7,5.5,7.1,5.5c1.3,1.8,3.5,3.1,6,3.1
		c2.2,0,4.2-1,5.6-2.6c0.9,0.4,1.8,0.6,2.8,0.6c3.1,0,5.7-1.9,6.8-4.5c1.6,0.7,3.5,1.1,5.5,1.1c5.9,0,10.6-3.3,10.6-7.4
		c0-0.9-0.3-1.8-0.7-2.6C61.4,25.7,61.6,24.6,61.6,23.5z"/>
	<path class="st0" d="M46.8,39.6c-1.8,2.5-4.7,4.1-7.8,4.1c-0.7,0-1.5-0.1-2.2-0.3c-0.8,0.7-1.8,1.3-2.8,1.7c2.3,2.8,6.5,8.5,8,13.6
		c0.8,0,3.2-0.1,4.5-2.1c-0.9-2.6-2.1-5.7-3.5-7.8l0-0.1c0.7,0.2,1.4,0.3,2.1,0.3c2,0,3.8-0.8,5.1-2.1c0,0,0,0,0,0c0,0,0,0,0,0
		c0.8-0.7,1.4-1.6,1.8-2.6c0.3,0,0.5,0,0.8,0c3.8,0,6.9-2.9,7.4-6.6c-2.3,1.6-5.3,2.6-8.7,2.6C49.7,40.2,48.2,40,46.8,39.6z"/>
	<g>
		<line class="st1" x1="21.6" y1="14.2" x2="24.9" y2="17.1"/>
		<g>
			<path class="st1" d="M9.7,26.7c0,0,0.9-2,6.1-2s9-2.9,9-7.6c1.2,0.6,8.1,1.9,8.7-3.9c0.6,3.7,0.7,7.2,8.3,9.5
				c7.6,2.2,6.9,7.2,6.7,10"/>
			<path class="st1" d="M19.3,24.2c0,0-1.4,3.6,2,5.3"/>
			<path class="st1" d="M37,20.4c0,0-5.5,6.5-0.7,12.3"/>
			<path class="st1" d="M28,27.5c0,0,2.2-2.6,6.3-1"/>
			<path class="st1" d="M41.1,22.4c0,0,0-3.9,3-5.7"/>
			<path class="st1" d="M48.2,27.5c0,0,5-2.1,7.6,0"/>
		</g>
	</g>
</g>
</svg>
